<svg aria-hidden="true" style="position: absolute; width: 0; height: 0; overflow: hidden;" version="1.1"
    xmlns="http://www.w3.org/2000/svg" xmlns:xlink="http://www.w3.org/1999/xlink">
    <defs>
        <symbol id="icon-twitter" viewBox="0 0 32 32">
            <path
                d="M32 6.078c-1.1 0.493-2.376 0.857-3.713 1.028l-0.068 0.007c1.36-0.817 2.382-2.078 2.873-3.579l0.013-0.046c-1.197 0.722-2.591 1.273-4.076 1.573l-0.084 0.014c-1.2-1.279-2.9-2.076-4.787-2.076-3.622 0-6.558 2.936-6.558 6.558 0 0.001 0 0.003 0 0.004v-0c0 0.52 0.043 1.021 0.152 1.496-5.454-0.266-10.28-2.88-13.522-6.861-0.564 0.949-0.899 2.092-0.902 3.313v0.001c0 2.272 1.171 4.286 2.914 5.451-1.091-0.030-2.107-0.325-2.994-0.823l0.033 0.017v0.072c0.003 3.165 2.236 5.807 5.213 6.44l0.043 0.008c-0.499 0.136-1.071 0.215-1.662 0.215-0.020 0-0.041-0-0.061-0l0.003 0c-0.419 0-0.843-0.024-1.242-0.112 0.85 2.598 3.261 4.509 6.13 4.57-2.215 1.746-5.045 2.8-8.122 2.8-0.004 0-0.008 0-0.013 0h0.001c-0.018 0-0.040 0-0.062 0-0.531 0-1.055-0.034-1.569-0.099l0.061 0.006c2.826 1.846 6.287 2.944 10.004 2.944 0.021 0 0.042-0 0.063-0h-0.003c12.072 0 18.672-10 18.672-18.669 0-0.288-0.010-0.57-0.024-0.848 1.299-0.936 2.39-2.064 3.258-3.355l0.030-0.047z">
            </path>
        </symbol>
        <symbol id="icon-phone" viewBox="0 0 32 32">
            <path fill="none" stroke-linejoin="round" stroke-linecap="round" stroke-miterlimit="4" stroke-width="1.3333"
                d="M26.667 21.337v3.217c0 0.003 0 0.006 0 0.009 0 1.186-0.961 2.147-2.147 2.147-0.068 0-0.134-0.003-0.2-0.009l0.008 0.001c-3.481-0.388-6.626-1.563-9.338-3.343l0.081 0.050c-2.608-1.675-4.761-3.828-6.386-6.353l-0.050-0.083c-1.736-2.644-2.912-5.804-3.285-9.205l-0.008-0.095c-0.006-0.058-0.009-0.125-0.009-0.193 0-1.185 0.96-2.145 2.145-2.145h3.219c0.006-0 0.013-0 0.020-0 1.079 0 1.972 0.797 2.123 1.834l0.001 0.012c0.136 1.029 0.387 2.040 0.751 3.013 0.295 0.784 0.107 1.668-0.483 2.264l-1.363 1.361c1.555 2.7 3.736 4.881 6.353 6.392l0.083 0.044 1.363-1.361c0.388-0.383 0.92-0.619 1.509-0.619 0.271 0 0.53 0.050 0.769 0.142l-0.015-0.005c0.973 0.363 1.984 0.613 3.013 0.751 1.050 0.151 1.847 1.045 1.847 2.125 0 0.019-0 0.037-0.001 0.056l0-0.003z">
            </path>
        </symbol>
        <symbol id="icon-map-pin" viewBox="0 0 32 32">
            <path fill="none" stroke-linejoin="round" stroke-linecap="round" stroke-miterlimit="4" stroke-width="1.3333"
                d="M26.667 13.819c0 7.635-10.667 14.181-10.667 14.181s-10.667-6.547-10.667-14.181c0-5.423 4.776-9.819 10.667-9.819s10.667 4.396 10.667 9.819v0z">
            </path>
            <path fill="none" stroke-linejoin="round" stroke-linecap="round" stroke-miterlimit="4" stroke-width="1.3333"
                d="M16 18.667c2.209 0 4-1.791 4-4s-1.791-4-4-4v0c-2.209 0-4 1.791-4 4s1.791 4 4 4v0z"></path>
        </symbol>
        <symbol id="icon-mail" viewBox="0 0 32 32">
            <path fill="none" stroke-linejoin="round" stroke-linecap="round" stroke-miterlimit="4" stroke-width="1.3333"
                d="M6.4 6.667h19.2c1.32 0 2.4 1.049 2.4 2.333v14c0 1.283-1.080 2.333-2.4 2.333h-19.2c-1.32 0-2.4-1.051-2.4-2.333v-14c0-1.284 1.080-2.333 2.4-2.333z">
            </path>
            <path fill="none" stroke-linejoin="round" stroke-linecap="round" stroke-miterlimit="4" stroke-width="1.3333"
                d="M26.667 9.333l-10.667 8-10.667-8">
            </path>
        </symbol>
        <symbol id="logo" viewBox="0 0 38 32">
            <path
                d="M21.41 9.64l-0.709-0.571c-0.091-0.079-0.21-0.127-0.341-0.127-0.169 0-0.32 0.081-0.415 0.206l-0.001 0.001-9.806 11.897 0.151 0.177 2.429-2.366c-0.083-0.036-0.148-0.099-0.188-0.177l-0.001-0.002c-0.028-0.055-0.045-0.119-0.045-0.188 0-0.027 0.003-0.054 0.008-0.080l-0 0.003c0.017-0.090 0.065-0.171 0.133-0.229 0.063-0.054 0.145-0.087 0.235-0.087 0.002 0 0.004 0 0.006 0h-0c0.083 0 0.159 0.029 0.22 0.077l-0.001-0.001c0.063 0.050 0.11 0.118 0.132 0.196l0.001 0.003 3.202-3.137c0.046-0.040 0.107-0.064 0.173-0.064s0.127 0.024 0.174 0.064l-0-0 0.162 0.126c0.043 0.034 0.098 0.054 0.158 0.054 0.083 0 0.156-0.039 0.204-0.099l0-0.001 4.186-4.96c0.077-0.087 0.124-0.203 0.124-0.329 0-0.087-0.022-0.168-0.061-0.239l0.001 0.003c-0.033-0.059-0.076-0.109-0.128-0.148l-0.001-0.001z">
            </path>
            <path
                d="M26.018 12.989c-2.017 1.535-4.382 2.739-6.945 3.477l-0.151 0.037c-2.273 0.638-4.913 1.071-7.631 1.208l-0.087 0.003c0.052 0.406 0.146 0.805 0.281 1.189 1.471 1.406 12.548-0.994 14.711-3.771 0.459-0.577-0.179-2.143-0.179-2.143zM12.864 18.857c-0.077-0-0.147-0.025-0.205-0.066l0.001 0.001c-0.060-0.044-0.107-0.103-0.135-0.172l-0.001-0.003c-0.017-0.044-0.027-0.094-0.027-0.147 0-0.107 0.041-0.204 0.108-0.276l-0 0c0.064-0.070 0.156-0.114 0.258-0.114 0.051 0 0.1 0.011 0.144 0.031l-0.002-0.001c0.069 0.031 0.125 0.080 0.164 0.141l0.001 0.002c0.041 0.063 0.062 0.138 0.062 0.215 0 0.001 0 0.003 0 0.004 0 0.105-0.040 0.201-0.107 0.273l0-0c-0.063 0.069-0.154 0.112-0.255 0.112-0.002 0-0.005-0-0.007-0h0zM2.399 12.166l0.087-0.394 1.406 0.337c0.111 0.212 0.186 0.461 0.211 0.724l0.001 0.008c0.027 0.271 0.010 0.546-0.049 0.811-0.073 0.383-0.237 0.719-0.468 0.998l0.003-0.004c-0.223 0.267-0.511 0.465-0.833 0.571-0.174 0.059-0.374 0.093-0.582 0.093-0.156 0-0.308-0.019-0.454-0.055l0.013 0.003c-0.356-0.084-0.662-0.261-0.903-0.503l-0-0c-0.244-0.239-0.423-0.543-0.511-0.884l-0.003-0.013c-0.046-0.171-0.073-0.368-0.073-0.571s0.027-0.4 0.076-0.587l-0.004 0.016c0.058-0.28 0.163-0.547 0.309-0.789 0.138-0.22 0.323-0.402 0.541-0.531l0.195 0.314c-0.189 0.125-0.346 0.283-0.466 0.467l-0.004 0.006c-0.118 0.182-0.204 0.396-0.243 0.625l-0.001 0.010c-0.030 0.125-0.047 0.269-0.047 0.416 0 0.171 0.023 0.337 0.066 0.494l-0.003-0.013c0.073 0.278 0.217 0.529 0.417 0.726 0.205 0.21 0.462 0.354 0.741 0.417 0.27 0.080 0.557 0.080 0.827 0 0.27-0.097 0.498-0.256 0.674-0.461l0.002-0.002c0.189-0.23 0.319-0.507 0.378-0.806 0.034-0.133 0.054-0.285 0.054-0.441 0-0.233-0.043-0.457-0.122-0.663l0.004 0.013-1.239-0.331zM5.46 8.571l-1.261 1.777 0.541 1.023-0.249 0.354-2.001-3.857 0.233-0.337 4.073 0.926-0.254 0.354-1.082-0.24zM5.103 8.48l-2.163-0.514 1.082 2.051 1.082-1.537zM5.103 4.886l0.325-0.257 2.061 2.914 1.698-1.343 0.206 0.291-2.017 1.594-2.272-3.2zM8.51 2.503l0.362-0.171 1.428 3.303 1.931-0.926 0.141 0.331-2.293 1.103-1.569-3.64zM15.639 3.817l0.081 0.36-2.607 0.646-0.866-3.897 2.531-0.623 0.075 0.354-2.163 0.531 0.309 1.383 1.904-0.474 0.081 0.354-1.91 0.469 0.325 1.446 2.239-0.549zM19.354 3.96l-0.903-1.257c-0.101 0.006-0.202 0.006-0.303 0l-1.017 0.034 0.038 1.269h-0.4l-0.125-4 1.439-0.006c0.047-0.005 0.101-0.007 0.156-0.007 0.374 0 0.719 0.125 0.995 0.336l-0.004-0.003c0.14 0.119 0.253 0.271 0.33 0.443s0.116 0.36 0.114 0.551c0.015 0.282-0.054 0.563-0.2 0.8-0.151 0.222-0.366 0.392-0.619 0.483l-0.009 0.003 0.946 1.337-0.438 0.017zM18.976 2.080c0.097-0.094 0.173-0.21 0.221-0.341s0.067-0.269 0.055-0.408c0-0.006 0-0.013 0-0.020 0-0.139-0.030-0.272-0.083-0.391l0.002 0.006c-0.057-0.129-0.138-0.238-0.238-0.326l-0.001-0.001c-0.205-0.149-0.461-0.239-0.739-0.239-0.039 0-0.077 0.002-0.115 0.005l0.005-0-1.027 0.040 0.065 2 1.006-0.034c0.014 0.001 0.029 0.001 0.046 0.001 0.307 0 0.588-0.11 0.806-0.294l-0.002 0.002zM22.215 2.897l-0.194 1.366-0.395-0.063 0.2-1.343-1.12-2.857 0.422 0.069 0.957 2.434 1.623-2.017 0.378 0.086-1.871 2.326zM27.565 2.657l0.471 0.646-0.206 0.171-0.47-0.663-0.298 0.749-0.227-0.103 0.303-0.749-0.779 0.109v-0.274l0.768-0.091-0.476-0.646 0.211-0.171 0.417 0.651 0.291-0.754 0.233 0.103-0.276 0.766 0.779-0.114v0.28l-0.741 0.091zM29.371 7.263c-0.123-0.198-0.206-0.433-0.232-0.684l-0.001-0.007 0.319-0.149c0.024 0.226 0.094 0.445 0.206 0.64 0.121 0.219 0.278 0.413 0.465 0.571 0.193 0.195 0.438 0.321 0.703 0.36 0.016 0.002 0.035 0.003 0.054 0.003 0.082 0 0.16-0.018 0.23-0.049l-0.004 0.001c0.089-0.039 0.167-0.1 0.229-0.178 0.078-0.093 0.126-0.215 0.126-0.347 0-0.015-0.001-0.029-0.002-0.043l0 0.002c-0.019-0.147-0.065-0.28-0.133-0.4l0.003 0.005c-0.116-0.2-0.225-0.366-0.342-0.526l0.012 0.017c-0.132-0.18-0.261-0.386-0.375-0.6l-0.014-0.028c-0.085-0.155-0.137-0.34-0.141-0.536l-0-0.001c0-0.211 0.075-0.416 0.211-0.571 0.118-0.151 0.273-0.263 0.449-0.326 0.090-0.028 0.193-0.045 0.3-0.045s0.21 0.016 0.307 0.047l-0.007-0.002c0.253 0.087 0.487 0.227 0.687 0.411 0.166 0.146 0.314 0.315 0.438 0.503 0.114 0.174 0.201 0.367 0.254 0.571l-0.309 0.171c-0.058-0.204-0.139-0.383-0.243-0.546l0.005 0.008c-0.105-0.15-0.224-0.279-0.359-0.392l-0.003-0.003c-0.18-0.186-0.421-0.313-0.691-0.348l-0.006-0.001c-0.015-0.001-0.032-0.002-0.049-0.002-0.085 0-0.165 0.019-0.237 0.053l0.003-0.001c-0.091 0.043-0.167 0.106-0.225 0.184l-0.001 0.002c-0.079 0.090-0.127 0.209-0.127 0.34 0 0.017 0.001 0.034 0.003 0.051l-0-0.002c0.013 0.144 0.057 0.283 0.13 0.406 0.076 0.131 0.184 0.303 0.33 0.509 0.145 0.194 0.275 0.401 0.39 0.617 0.090 0.163 0.14 0.349 0.146 0.537 0.001 0.211-0.074 0.416-0.211 0.571-0.115 0.149-0.269 0.262-0.448 0.324l-0.007 0.002c-0.195 0.063-0.405 0.063-0.6 0-0.268-0.094-0.499-0.234-0.694-0.413l0.001 0.001c-0.216-0.2-0.397-0.434-0.534-0.694l-0.007-0.014zM34.812 8.097l-0.762-1.143 0.281-0.211 1.758 2.651-0.281 0.211-0.763-1.143-2.823 2.086-0.227-0.349 2.818-2.103zM33.601 12.794c0.1-0.354 0.288-0.656 0.54-0.89l0.001-0.001c0.251-0.238 0.557-0.401 0.887-0.474 0.132-0.033 0.283-0.052 0.438-0.052 0.207 0 0.406 0.034 0.592 0.096l-0.013-0.004c0.331 0.119 0.61 0.316 0.825 0.569l0.002 0.003c0.226 0.275 0.388 0.612 0.457 0.981l0.002 0.014c0.043 0.166 0.067 0.356 0.067 0.551s-0.025 0.386-0.071 0.567l0.003-0.016c-0.102 0.353-0.29 0.654-0.54 0.891l-0.001 0.001c-0.258 0.244-0.571 0.413-0.91 0.491-0.129 0.031-0.276 0.049-0.428 0.049-0.212 0-0.415-0.035-0.606-0.098l0.013 0.004c-0.334-0.114-0.614-0.311-0.825-0.568l-0.003-0.003c-0.225-0.274-0.387-0.608-0.457-0.975l-0.002-0.014c-0.035-0.152-0.056-0.327-0.056-0.506 0-0.218 0.030-0.43 0.087-0.63l-0.004 0.016zM34.309 14.611c0.181 0.217 0.415 0.377 0.676 0.463 0.27 0.083 0.554 0.093 0.829 0.029s0.529-0.2 0.74-0.394c0.2-0.194 0.347-0.44 0.427-0.714 0.040-0.147 0.063-0.315 0.063-0.489 0-0.14-0.015-0.277-0.043-0.409l0.002 0.013c-0.064-0.305-0.195-0.573-0.376-0.798l0.003 0.004c-0.182-0.212-0.418-0.372-0.687-0.46l-0.011-0.003c-0.125-0.036-0.268-0.057-0.417-0.057s-0.292 0.021-0.427 0.060l0.011-0.003c-0.289 0.061-0.54 0.2-0.736 0.394l0-0c-0.202 0.194-0.349 0.443-0.427 0.72-0.035 0.133-0.055 0.286-0.055 0.443s0.020 0.31 0.058 0.455l-0.003-0.013c0.059 0.283 0.188 0.546 0.373 0.76zM33.19 19.429l1.401-0.571c0-0.103 0.033-0.206 0.059-0.314l0.265-1.034-1.146-0.314 0.103-0.406 3.656 1.034-0.368 1.446c-0.084 0.43-0.309 0.797-0.625 1.061l-0.003 0.002c-0.183 0.138-0.414 0.221-0.665 0.221-0.13 0-0.255-0.022-0.371-0.063l0.008 0.002c-0.272-0.065-0.501-0.219-0.661-0.429l-0.002-0.003c-0.163-0.212-0.261-0.482-0.262-0.774v-0l-1.493 0.571 0.103-0.429zM35.001 19.589c0.063 0.121 0.15 0.228 0.253 0.314s0.222 0.147 0.349 0.183c0.076 0.022 0.162 0.035 0.252 0.035 0.187 0 0.362-0.056 0.507-0.152l-0.004 0.002c0.239-0.203 0.402-0.488 0.46-0.806l0.259-1.029-1.833-0.52-0.26 1.029c-0.045 0.134-0.071 0.287-0.071 0.447 0 0.178 0.032 0.348 0.091 0.506l-0.003-0.010zM31.248 23.109l-0.276-0.223 1.623-2.257 3.018 2.417-1.569 2.189-0.275-0.223 1.325-1.846-1.082-0.863-1.185 1.651-0.271-0.217 1.211-1.651-1.119-0.897-1.401 1.92zM29.983 27.663l-0.774 0.046v-0.274l0.773-0.006-0.417-0.68 0.211-0.143 0.411 0.686 0.335-0.766 0.233 0.131-0.368 0.72 0.773-0.046v0.28h-0.784l0.417 0.68-0.211 0.143-0.411-0.686-0.357 0.743-0.227-0.137 0.395-0.691zM22.951 27.206l0.654 0.383c0.11-0.223 0.263-0.418 0.449-0.574 0.177-0.149 0.389-0.262 0.621-0.326l0.012-0.003c0.152-0.052 0.327-0.082 0.509-0.082 0.055 0 0.109 0.003 0.163 0.008l-0.007-0.001c0.194 0.015 0.382 0.087 0.541 0.206 0.144 0.114 0.25 0.274 0.303 0.457 0.065 0.226 0.054 0.469-0.033 0.686-0.142 0.306-0.323 0.569-0.542 0.795l0.001-0.001c0.178 0.101 0.344 0.226 0.493 0.371 0.102 0.111 0.178 0.246 0.222 0.394 0.027 0.115 0.029 0.236 0.005 0.352s-0.074 0.225-0.145 0.317c-0.145 0.22-0.36 0.376-0.606 0.44-0.099 0.041-0.215 0.065-0.335 0.065s-0.236-0.024-0.341-0.067l0.006 0.002c-0.099-0.046-0.183-0.112-0.248-0.193l-0.001-0.001c-0.066-0.082-0.115-0.179-0.14-0.286l-0.001-0.005c-0.022-0.070-0.034-0.151-0.034-0.235 0-0.122 0.027-0.238 0.075-0.342l-0.002 0.005c0.124-0.26 0.286-0.497 0.481-0.703l-1.303-0.766c-0.050 0.269-0.061 0.545-0.033 0.817h-0.33c-0.004-0.057-0.006-0.123-0.006-0.19 0-0.287 0.042-0.564 0.12-0.825l-0.005 0.020-0.682-0.4 0.141-0.32zM23.893 27.777l1.433 0.84c0.187-0.19 0.343-0.411 0.459-0.657 0.059-0.166 0.059-0.349 0-0.514-0.026-0.103-0.073-0.192-0.138-0.266l0.001 0.001c-0.066-0.074-0.149-0.131-0.241-0.163-0.103-0.038-0.222-0.060-0.346-0.060s-0.243 0.022-0.353 0.062l0.007-0.002c-0.183 0.051-0.354 0.144-0.5 0.273s-0.263 0.289-0.343 0.47l0.022 0.017zM25.926 30.063c0.043-0.075 0.068-0.165 0.068-0.262 0-0.058-0.009-0.113-0.026-0.165l0.001 0.004c-0.035-0.116-0.094-0.216-0.173-0.297l0 0c-0.137-0.123-0.288-0.229-0.449-0.314-0.164 0.171-0.307 0.363-0.427 0.571-0.040 0.078-0.064 0.171-0.064 0.269 0 0.055 0.007 0.108 0.021 0.158l-0.001-0.004c0.017 0.065 0.047 0.126 0.089 0.178 0.040 0.051 0.090 0.093 0.147 0.123l0.003 0.001c0.137 0.055 0.289 0.055 0.427 0 0.147-0.042 0.275-0.137 0.363-0.269l0.021 0.006zM16.358 31.611l0.075-4h0.384l-0.059 3.2 1.536-2.663h0.189l1.439 2.709 0.054-3.183h0.384l-0.070 4h-0.33l-1.59-2.989-1.682 2.931-0.33-0.006zM14.476 27.429c0.247 0.249 0.424 0.566 0.511 0.915s0.080 0.717-0.019 1.063c-0.092 0.365-0.271 0.679-0.514 0.932l0.001-0.001c-0.24 0.249-0.542 0.423-0.871 0.503-0.139 0.035-0.298 0.054-0.462 0.054-0.21 0-0.412-0.032-0.601-0.092l0.014 0.004c-0.357-0.095-0.664-0.276-0.909-0.52l0 0c-0.239-0.243-0.414-0.548-0.5-0.889l-0.003-0.013c-0.037-0.152-0.059-0.327-0.059-0.507 0-0.205 0.028-0.403 0.079-0.591l-0.004 0.016c0.099-0.364 0.281-0.677 0.524-0.93l-0.001 0.001c0.236-0.249 0.531-0.427 0.854-0.514 0.138-0.034 0.296-0.054 0.46-0.054 0.209 0 0.41 0.032 0.598 0.092l-0.014-0.004c0.361 0.1 0.67 0.287 0.914 0.537l0 0zM12.631 27.229c-0.277 0.071-0.514 0.215-0.696 0.411l-0.001 0.001c-0.195 0.206-0.339 0.463-0.409 0.748l-0.002 0.012c-0.075 0.286-0.075 0.589 0 0.874 0.066 0.287 0.204 0.535 0.395 0.732l-0-0c0.204 0.21 0.455 0.362 0.731 0.44 0.275 0.074 0.563 0.074 0.838 0 0.265-0.069 0.507-0.211 0.703-0.411 0.198-0.21 0.34-0.473 0.411-0.76 0.036-0.132 0.057-0.284 0.057-0.44s-0.021-0.308-0.059-0.452l0.003 0.012c-0.072-0.286-0.211-0.533-0.401-0.732l0.001 0.001c-0.196-0.203-0.445-0.354-0.725-0.432l-0.011-0.003c-0.273-0.080-0.56-0.080-0.833 0zM8.537 24.571l0.146 1.571c0.093 0.042 0.183 0.090 0.27 0.143l0.882 0.537 0.595-1.109 0.351 0.211-1.893 3.446-1.233-0.749c-0.369-0.202-0.653-0.519-0.807-0.902l-0.004-0.012c-0.042-0.123-0.066-0.265-0.066-0.412 0-0.249 0.069-0.481 0.188-0.68l-0.003 0.006c0.126-0.25 0.325-0.451 0.568-0.571 0.246-0.108 0.519-0.13 0.779-0.063l-0.157-1.68 0.384 0.263zM7.921 26.377c-0.135 0.037-0.252 0.098-0.353 0.179l0.002-0.001c-0.104 0.084-0.191 0.189-0.257 0.309-0.081 0.148-0.129 0.325-0.129 0.513 0 0.102 0.014 0.201 0.041 0.295l-0.002-0.008c0.127 0.296 0.347 0.536 0.623 0.68l0.871 0.531 0.946-1.714-0.871-0.531c-0.218-0.176-0.498-0.282-0.804-0.282-0.024 0-0.047 0.001-0.071 0.002l0.003-0v0.029zM5.335 21.891l0.243-0.257 1.866 2.029-2.704 2.789-1.801-1.966 0.249-0.257 1.531 1.663 0.925-0.989-1.341-1.474 0.259-0.263 1.369 1.486 1.006-1.034-1.601-1.726zM1.317 19.646l0.129-0.789 0.254 0.040-0.146 0.811 0.72-0.28 0.086 0.251-0.73 0.263 0.6 0.537-0.173 0.206-0.579-0.571-0.135 0.811-0.259-0.051 0.151-0.811-0.725 0.274-0.081-0.223 0.725-0.269-0.601-0.531 0.178-0.206 0.585 0.537z">
            </path>
        </symbol>
        <symbol id="icon-linkedin" viewBox="0 0 32 32">
            <path
                d="M31.992 32h0.008v-11.738c0-5.741-1.235-10.163-7.947-10.163-3.227 0-5.392 1.77-6.277 3.45h-0.093v-2.914h-6.365v21.363h6.627v-10.578c0-2.786 0.528-5.48 3.978-5.48 3.398 0 3.45 3.179 3.45 5.658v10.402h6.619zM0.528 10.635h6.635v21.365h-6.635v-21.365zM3.843 0c-2.123 0-3.843 1.721-3.843 3.843v0c0 2.12 1.722 3.878 3.843 3.878 2.12 0 3.842-1.757 3.842-3.878s-1.72-3.841-3.841-3.843h-0z">
            </path>
        </symbol>
        <symbol id="icon-instagram" viewBox="0 0 32 32">
            <path
                d="M31.968 9.408c-0.074-1.701-0.349-2.869-0.742-3.882-0.424-1.111-1.054-2.059-1.85-2.837l-0.001-0.001c-0.78-0.792-1.724-1.419-2.778-1.827l-0.054-0.018c-1.019-0.394-2.181-0.667-3.882-0.742-1.712-0.082-2.256-0.101-6.602-0.101-4.344 0-4.888 0.019-6.595 0.094-1.699 0.074-2.869 0.349-3.88 0.742-1.112 0.424-2.060 1.054-2.839 1.85l-0.001 0.001c-0.791 0.78-1.418 1.724-1.825 2.778l-0.018 0.054c-0.395 1.019-0.669 2.181-0.744 3.882-0.082 1.712-0.101 2.256-0.101 6.602 0 4.344 0.019 4.888 0.094 6.595 0.075 1.701 0.35 2.869 0.744 3.882 0.426 1.11 1.055 2.057 1.849 2.837l0.001 0.001c0.8 0.813 1.77 1.443 2.832 1.843 1.019 0.395 2.182 0.67 3.882 0.744 1.707 0.075 2.251 0.094 6.595 0.094 4.346 0 4.89-0.019 6.595-0.094 1.701-0.074 2.869-0.349 3.882-0.742 2.157-0.85 3.833-2.526 4.664-4.628l0.019-0.055c0.394-1.019 0.669-2.182 0.744-3.882 0.075-1.707 0.093-2.251 0.093-6.595s-0.006-4.888-0.080-6.595zM29.088 22.474c-0.070 1.563-0.333 2.406-0.55 2.97-0.552 1.399-1.64 2.486-3.004 3.024l-0.036 0.012c-0.56 0.219-1.411 0.482-2.968 0.55-1.688 0.075-2.194 0.094-6.464 0.094-4.269 0-4.782-0.019-6.464-0.094-1.563-0.069-2.406-0.331-2.97-0.55-0.721-0.269-1.334-0.676-1.836-1.192l-0.001-0.001c-0.517-0.503-0.924-1.117-1.184-1.803l-0.011-0.034c-0.218-0.563-0.48-1.413-0.549-2.97-0.075-1.688-0.094-2.195-0.094-6.464 0-4.27 0.019-4.784 0.094-6.464 0.069-1.563 0.331-2.406 0.549-2.97 0.269-0.722 0.678-1.337 1.198-1.837l0.002-0.002c0.504-0.517 1.119-0.923 1.806-1.182l0.034-0.011c0.56-0.219 1.411-0.48 2.968-0.55 1.688-0.074 2.195-0.093 6.464-0.093 4.275 0 4.782 0.019 6.464 0.093 1.563 0.069 2.406 0.331 2.97 0.55 0.693 0.256 1.325 0.662 1.837 1.194 0.531 0.52 0.938 1.144 1.195 1.84 0.218 0.56 0.48 1.411 0.549 2.968 0.075 1.688 0.094 2.194 0.094 6.464 0 4.269-0.019 4.768-0.094 6.458z">
            </path>
            <path
                d="M16.059 7.782c-4.539 0.002-8.218 3.682-8.219 8.221v0c0 0 0 0.001 0 0.002 0 4.541 3.681 8.222 8.222 8.222s8.222-3.681 8.222-8.222c0-4.541-3.681-8.222-8.222-8.222-0.001 0-0.001 0-0.002 0h0zM16.059 21.334c-2.945-0-5.332-2.388-5.332-5.333s2.388-5.333 5.333-5.333c0 0 0.001 0 0.001 0h-0c2.946 0 5.334 2.388 5.334 5.334s-2.388 5.334-5.334 5.334v0zM26.525 7.458c0 1.060-0.86 1.92-1.92 1.92s-1.92-0.86-1.92-1.92v0c0-1.060 0.86-1.92 1.92-1.92s1.92 0.86 1.92 1.92v0z">
            </path>
        </symbol>
        <symbol id="icon-facebook" viewBox="0 0 32 32">
            <path
                d="M21.328 5.312h2.923v-5.088c-1.232-0.143-2.66-0.224-4.107-0.224-0.052 0-0.104 0-0.157 0l0.008-0c-4.213 0-7.099 2.65-7.099 7.52v4.48h-4.646v5.688h4.646v14.312h5.698v-14.31h4.461l0.707-5.688h-5.168v-3.922c0-1.643 0.443-2.768 2.734-2.768z">
            </path>
        </symbol>
        <symbol id="mobile-menu-close" viewBox="0 0 32 32">
            <path
                d="M23.734 10.304l-1.504-1.504-5.963 5.962-5.962-5.962-1.504 1.504 5.962 5.962-5.962 5.963 1.504 1.504 5.962-5.963 5.963 5.963 1.504-1.504-5.963-5.963 5.963-5.962z">
            </path>
        </symbol>
        <symbol id="mobile-menu-open" viewBox="0 0 32 32">
            <path
                d="M6.4 11.734v-2.134h19.2v2.134h-19.2zM6.4 17.066h19.2v-2.133h-19.2v2.133zM6.4 22.4h19.2v-2.134h-19.2v2.134z">
            </path>
        </symbol>
        <symbol id="icon-slider-nav" viewBox="0 0 19 32">
            <path fill="#9da4bd" style="fill: var(--color1, #9da4bd)"
                d="M10.593 29.867h8.137v2.133h-8.137zM10.593 14.933h8.137v2.133h-8.137z"></path>
            <path fill="#fff" style="fill: var(--color2, #fff)" d="M0.422 0h18.307v2.133h-18.307z"></path>
        </symbol>
        <symbol id="icon-copyright" viewBox="0 0 32 32">
            <path fill="#9da4bd" style="fill: var(--color1, #9da4bd)"
                d="M15.808 11.424c2.048 0.096 2.576 1.84 2.608 2.656h2.864c-0.128-3.168-2.384-5.104-5.52-5.104-3.536 0-6.16 2.224-6.16 7.248 0 3.104 1.488 6.784 6.144 6.784 3.552 0 5.456-2.64 5.504-4.72h-2.864c-0.048 0.944-0.72 2.208-2.608 2.304-2.096-0.064-2.976-1.696-2.976-4.368 0-4.624 2.048-4.768 3.008-4.8zM16 0c-8.832 0-16 7.168-16 16s7.168 16 16 16 16-7.168 16-16-7.168-16-16-16zM16 28.8c-7.066-0.009-12.791-5.734-12.8-12.799v-0.001c0-7.056 5.744-12.8 12.8-12.8s12.8 5.744 12.8 12.8-5.744 12.8-12.8 12.8z">
            </path>
        </symbol>
    </defs>
</svg>