<svg width="66" height="56" fill="none" xmlns="http://www.w3.org/2000/svg"><g clip-path="url(#a)" fill="#303030"><path d="m37.467 16.87-1.24-1a.912.912 0 0 0-1.325.14l-17.16 20.82.265.31 4.25-4.14a.666.666 0 0 1-.331-.313.725.725 0 0 1-.066-.464c.03-.158.113-.3.232-.401a.631.631 0 0 1 .42-.152.62.62 0 0 1 .383.133.68.68 0 0 1 .233.347l5.603-5.49a.467.467 0 0 1 .606 0l.284.22a.454.454 0 0 0 .634-.08l7.326-8.68a.873.873 0 0 0 .112-.989.815.815 0 0 0-.226-.261Z"/><path d="M45.531 22.73a37.403 37.403 0 0 1-12.418 6.15A64.003 64.003 0 0 1 19.607 31c.091.71.256 1.408.492 2.08 2.574 2.46 21.959-1.74 25.745-6.6.804-1.01-.313-3.75-.313-3.75ZM22.512 33a.62.62 0 0 1-.357-.115.673.673 0 0 1-.237-.305.715.715 0 0 1 .14-.74.612.612 0 0 1 .701-.147.653.653 0 0 1 .288.25c.071.111.109.242.109.377a.705.705 0 0 1-.186.484.605.605 0 0 1-.458.196ZM4.198 21.29l.152-.69 2.46.59a3.5 3.5 0 0 1 .37 1.28c.047.475.018.955-.085 1.42a3.847 3.847 0 0 1-.814 1.74c-.391.467-.895.813-1.458 1a3.276 3.276 0 0 1-1.789.07 3.267 3.267 0 0 1-1.58-.88 3.338 3.338 0 0 1-.9-1.57 3.986 3.986 0 0 1 0-2c.102-.49.285-.957.54-1.38.241-.385.566-.704.946-.93l.341.55a2.779 2.779 0 0 0-.822.828 2.953 2.953 0 0 0-.427 1.112A3.29 3.29 0 0 0 1.16 24c.127.486.38.926.729 1.27.359.367.808.62 1.297.73.473.14.974.14 1.448 0a2.772 2.772 0 0 0 1.183-.81c.33-.403.559-.888.662-1.41a3.233 3.233 0 0 0-.113-1.91l-2.168-.58ZM9.555 15l-2.206 3.11.947 1.79-.436.62-3.502-6.75.407-.59 7.128 1.62-.445.62L9.555 15Zm-.625-.16-3.786-.9 1.893 3.59 1.893-2.69ZM8.93 8.55l.568-.45 3.606 5.1 2.972-2.35.36.51-3.53 2.79-3.976-5.6ZM14.893 4.38l.634-.3 2.499 5.78 3.379-1.62.246.58-4.013 1.93-2.745-6.37ZM27.368 6.68l.142.63-4.562 1.13-1.515-6.82 4.43-1.09.132.62-3.786.93.54 2.42 3.332-.83.142.62-3.342.82.568 2.53 3.919-.96ZM33.87 6.93l-1.58-2.2c-.177.01-.354.01-.53 0l-1.78.06.067 2.22h-.7l-.219-7L31.646 0a2.873 2.873 0 0 1 2.007.57c.245.209.443.474.577.776.135.301.203.63.199.964.027.494-.095.985-.35 1.4a2.217 2.217 0 0 1-1.098.85l1.656 2.34-.767.03Zm-.662-3.29c.17-.165.302-.368.386-.596.083-.227.117-.471.096-.714a1.688 1.688 0 0 0-.14-.708 1.603 1.603 0 0 0-.418-.572 2.208 2.208 0 0 0-1.486-.41l-1.798.07.113 3.5 1.76-.06a2.192 2.192 0 0 0 1.487-.51ZM38.877 5.07l-.34 2.39-.691-.11.35-2.35-1.96-5 .739.12 1.675 4.26L41.49.85l.662.15-3.275 4.07ZM48.238 4.65l.824 1.13-.36.3-.823-1.16-.521 1.31-.397-.18.53-1.31-1.363.19v-.48l1.344-.16-.833-1.13.369-.3.729 1.14.51-1.32.408.18-.483 1.34 1.363-.2v.49l-1.297.16ZM51.4 12.71a2.87 2.87 0 0 1-.407-1.21l.558-.26c.042.396.165.778.36 1.12.211.383.487.722.814 1 .337.341.767.562 1.23.63a.982.982 0 0 0 .49-.079c.156-.068.293-.175.4-.311a.947.947 0 0 0 .218-.68 1.91 1.91 0 0 0-.228-.69 10.54 10.54 0 0 0-.577-.89 9.148 9.148 0 0 1-.681-1.1 2.087 2.087 0 0 1-.247-.94c0-.37.132-.728.37-1 .206-.264.478-.461.785-.57a1.796 1.796 0 0 1 1.05 0c.443.153.852.398 1.203.72.291.256.549.552.767.88.2.304.351.642.444 1l-.54.3a3.615 3.615 0 0 0-.416-.94A3.527 3.527 0 0 0 56.36 9a2.056 2.056 0 0 0-1.22-.61.973.973 0 0 0-.495.086 1.032 1.032 0 0 0-.395.324.906.906 0 0 0-.218.68c.022.252.1.495.227.71.133.23.322.53.577.89.254.34.481.702.682 1.08.157.286.245.61.255.94.001.37-.13.728-.369 1a1.684 1.684 0 0 1-.795.57c-.342.11-.708.11-1.05 0a3.465 3.465 0 0 1-1.212-.72 4.512 4.512 0 0 1-.946-1.24ZM60.921 14.17l-1.334-2 .492-.37 3.076 4.64-.492.37-1.335-2-4.94 3.65-.398-.61 4.931-3.68ZM58.801 22.39a3.346 3.346 0 0 1 .947-1.56c.44-.416.975-.702 1.552-.83a3.25 3.25 0 0 1 1.78.07 3.36 3.36 0 0 1 1.448 1 3.84 3.84 0 0 1 .804 1.74 4.018 4.018 0 0 1 0 1.93 3.447 3.447 0 0 1-.946 1.56c-.452.427-1 .723-1.593.86a3.331 3.331 0 0 1-1.786-.08 3.162 3.162 0 0 1-1.449-1 3.848 3.848 0 0 1-.804-1.73 4.06 4.06 0 0 1 .047-1.96Zm1.24 3.18c.316.38.726.66 1.183.81.472.145.97.162 1.45.05s.925-.35 1.295-.69c.35-.34.607-.77.748-1.25a3.398 3.398 0 0 0 .038-1.55 3.294 3.294 0 0 0-.653-1.39 2.681 2.681 0 0 0-1.221-.81 2.693 2.693 0 0 0-1.458 0 2.564 2.564 0 0 0-1.287.69c-.353.34-.611.776-.748 1.26a3.164 3.164 0 0 0 0 1.55c.104.496.329.955.653 1.33ZM58.082 34l2.451-1c0-.18.057-.36.104-.55l.464-1.81-2.006-.55.18-.71 6.398 1.81-.644 2.53a3.2 3.2 0 0 1-1.098 1.86 1.942 1.942 0 0 1-1.798.28 2.04 2.04 0 0 1-1.16-.755 2.247 2.247 0 0 1-.459-1.355l-2.612 1 .18-.75Zm3.17.28c.111.212.262.399.443.549.18.15.388.258.61.321a1.617 1.617 0 0 0 1.323-.2c.418-.355.703-.854.805-1.41l.454-1.8-3.208-.91-.455 1.8a2.537 2.537 0 0 0 .029 1.65ZM54.684 40.44l-.483-.39 2.84-3.95 5.281 4.23-2.745 3.83-.482-.39 2.319-3.23-1.893-1.51-2.073 2.89-.474-.38 2.12-2.89-1.959-1.57-2.451 3.36ZM52.47 48.41l-1.354.08v-.48l1.353-.01-.729-1.19.37-.25.719 1.2.587-1.34.407.23-.644 1.26 1.353-.08v.49H53.16l.729 1.19-.37.25-.719-1.2-.624 1.3-.398-.24.691-1.21ZM40.165 47.61l1.145.67c.192-.39.46-.732.786-1.004a2.885 2.885 0 0 1 1.107-.576 2.84 2.84 0 0 1 1.164-.13c.34.027.668.152.947.36.252.2.437.48.53.8.114.395.094.82-.057 1.2a5.002 5.002 0 0 1-.947 1.39c.312.177.602.395.862.65.178.195.311.431.388.69.048.202.051.413.008.616-.042.203-.13.393-.254.554-.253.385-.63.658-1.06.77a1.564 1.564 0 0 1-1.174 0 1.19 1.19 0 0 1-.435-.34 1.275 1.275 0 0 1-.247-.51 1.43 1.43 0 0 1 .067-1c.217-.455.501-.87.842-1.23l-2.281-1.34c-.087.47-.106.953-.057 1.43h-.577a5.035 5.035 0 0 1 .19-1.74l-1.194-.7.247-.56Zm1.647 1 2.508 1.47c.328-.332.6-.72.804-1.15.104-.29.104-.61 0-.9a1.1 1.1 0 0 0-.241-.464c-.116-.13-.26-.229-.421-.286a1.797 1.797 0 0 0-1.212 0c-.32.09-.62.252-.875.477-.255.224-.46.505-.601.823l.038.03Zm3.558 4a.935.935 0 0 0 .076-.74 1.243 1.243 0 0 0-.303-.52c-.24-.215-.504-.4-.785-.55-.287.3-.538.636-.748 1a1.05 1.05 0 0 0-.076.74c.03.114.083.22.155.312a.804.804 0 0 0 .262.218c.24.096.506.096.747 0 .258-.073.482-.24.635-.47l.037.01ZM28.627 55.32l.132-7h.672l-.104 5.6 2.688-4.66h.331L34.864 54l.095-5.57h.672l-.123 7h-.578l-2.782-5.23-2.944 5.13-.577-.01ZM25.333 48c.433.436.742.99.895 1.601.152.611.14 1.255-.034 1.86a3.61 3.61 0 0 1-.899 1.63c-.42.436-.949.74-1.524.88a3.483 3.483 0 0 1-1.836-.06 3.507 3.507 0 0 1-1.59-.91 3.404 3.404 0 0 1-.88-1.58 3.891 3.891 0 0 1 .03-1.894 3.737 3.737 0 0 1 .916-1.627c.413-.436.93-.747 1.495-.9a3.456 3.456 0 0 1 1.827.06 3.522 3.522 0 0 1 1.6.94Zm-3.228-.35a2.494 2.494 0 0 0-1.22.72 2.934 2.934 0 0 0-.72 1.33c-.132.5-.132 1.03 0 1.53a2.7 2.7 0 0 0 .69 1.28c.357.368.797.634 1.279.77.481.13.985.13 1.467 0 .463-.12.888-.369 1.23-.72.347-.368.595-.827.72-1.33a3.037 3.037 0 0 0 0-1.54 2.851 2.851 0 0 0-.7-1.28 2.802 2.802 0 0 0-1.288-.76c-.477-.14-.98-.14-1.458 0ZM14.94 43l.256 2.75c.162.073.32.157.473.25l1.543.94L18.253 45l.615.37-3.312 6.03-2.158-1.31a3.115 3.115 0 0 1-1.42-1.6 2.316 2.316 0 0 1 .208-1.9c.22-.438.569-.79.994-1 .431-.189.909-.227 1.363-.11l-.275-2.94.672.46Zm-1.079 3.16a1.668 1.668 0 0 0-.614.31c-.182.147-.335.33-.45.54a1.898 1.898 0 0 0-.158 1.4c.223.518.608.938 1.09 1.19l1.524.93 1.656-3-1.524-.93a2.252 2.252 0 0 0-1.524-.49v.05ZM9.337 38.31l.426-.45 3.265 3.55-4.732 4.88-3.152-3.44.435-.45 2.679 2.91 1.618-1.73L7.53 41l.454-.46 2.395 2.6 1.76-1.81-2.801-3.02ZM2.304 34.38 2.53 33l.445.07-.256 1.42L3.979 34l.151.44-1.277.46 1.05.94-.303.36-1.013-1-.236 1.42-.454-.09.265-1.42-1.269.48-.142-.39 1.269-.47-1.051-.93.312-.36 1.023.94Z"/></g><defs><clipPath id="a"><path fill="#fff" transform="translate(.411)" d="M0 0h65.242v55.46H0z"/></clipPath></defs></svg>